<svg xmlns="http://www.w3.org/2000/svg" viewBox="0 0 640 360" preserveAspectRatio="xMidYMid slice" role="img" aria-label="Spatial Visium cell-type deconvolution thumbnail">
  <defs>
    <style>
      .bg { fill: #1D171A; }
      .grid-line { stroke: #392D34; stroke-width: 1; }
      .axis { stroke: #5B4752; stroke-width: 1; }
      .label { font-family: "Fragment Mono", ui-monospace, "SF Mono", Menlo, monospace; font-size: 14px; fill: #967386; letter-spacing: 0.04em; }
      .label-dim { font-family: "Fragment Mono", ui-monospace, "SF Mono", Menlo, monospace; font-size: 11px; fill: #5B4752; letter-spacing: 0.04em; }
    </style>
  </defs>
  <rect class="bg" width="640" height="360"/>
  <g class="grid-line">
    <line x1="0" y1="90"  x2="640" y2="90"/>
    <line x1="0" y1="180" x2="640" y2="180"/>
    <line x1="0" y1="270" x2="640" y2="270"/>
    <line x1="160" y1="0" x2="160" y2="360"/>
    <line x1="320" y1="0" x2="320" y2="360"/>
    <line x1="480" y1="0" x2="480" y2="360"/>
  </g>
  <g class="axis">
    <line x1="56" y1="320" x2="600" y2="320"/>
    <line x1="56" y1="40"  x2="56"  y2="320"/>
  </g>
  <!-- Visium spots coloured by dominant deconvolved cell type -->
  <g>
<circle cx="70" cy="52" r="6.4" fill="#6E4555"/>
<circle cx="91" cy="52" r="6.4" fill="#6E4555"/>
<circle cx="112" cy="52" r="6.4" fill="#6E4555"/>
<circle cx="134" cy="52" r="6.4" fill="#6E4555"/>
<circle cx="155" cy="52" r="6.4" fill="#6E4555"/>
<circle cx="176" cy="52" r="6.4" fill="#6E4555"/>
<circle cx="197" cy="52" r="6.4" fill="#6E4555"/>
<circle cx="218" cy="52" r="6.4" fill="#6E4555"/>
<circle cx="240" cy="52" r="6.4" fill="#6E4555"/>
<circle cx="261" cy="52" r="6.4" fill="#6E4555"/>
<circle cx="282" cy="52" r="6.4" fill="#6E4555"/>
<circle cx="303" cy="52" r="6.4" fill="#C2ADB8"/>
<circle cx="324" cy="52" r="6.4" fill="#C2ADB8"/>
<circle cx="346" cy="52" r="6.4" fill="#9A6A7E"/>
<circle cx="367" cy="52" r="6.4" fill="#9A6A7E"/>
<circle cx="388" cy="52" r="6.4" fill="#9A6A7E"/>
<circle cx="409" cy="52" r="6.4" fill="#9A6A7E"/>
<circle cx="430" cy="52" r="6.4" fill="#9A6A7E"/>
<circle cx="452" cy="52" r="6.4" fill="#9A6A7E"/>
<circle cx="473" cy="52" r="6.4" fill="#9A6A7E"/>
<circle cx="494" cy="52" r="6.4" fill="#9A6A7E"/>
<circle cx="515" cy="52" r="6.4" fill="#9A6A7E"/>
<circle cx="536" cy="52" r="6.4" fill="#9A6A7E"/>
<circle cx="558" cy="52" r="6.4" fill="#9A6A7E"/>
<circle cx="579" cy="52" r="6.4" fill="#9A6A7E"/>
<circle cx="600" cy="52" r="6.4" fill="#9A6A7E"/>
<circle cx="83" cy="71" r="6.4" fill="#6E4555"/>
<circle cx="104" cy="71" r="6.4" fill="#6E4555"/>
<circle cx="125" cy="71" r="6.4" fill="#6E4555"/>
<circle cx="147" cy="71" r="6.4" fill="#6E4555"/>
<circle cx="168" cy="71" r="6.4" fill="#6E4555"/>
<circle cx="189" cy="71" r="6.4" fill="#6E4555"/>
<circle cx="210" cy="71" r="6.4" fill="#6E4555"/>
<circle cx="231" cy="71" r="6.4" fill="#6E4555"/>
<circle cx="253" cy="71" r="6.4" fill="#6E4555"/>
<circle cx="274" cy="71" r="6.4" fill="#6E4555"/>
<circle cx="295" cy="71" r="6.4" fill="#C2ADB8"/>
<circle cx="316" cy="71" r="6.4" fill="#C2ADB8"/>
<circle cx="337" cy="71" r="6.4" fill="#C2ADB8"/>
<circle cx="359" cy="71" r="6.4" fill="#9A6A7E"/>
<circle cx="380" cy="71" r="6.4" fill="#9A6A7E"/>
<circle cx="401" cy="71" r="6.4" fill="#9A6A7E"/>
<circle cx="422" cy="71" r="6.4" fill="#9A6A7E"/>
<circle cx="443" cy="71" r="6.4" fill="#9A6A7E"/>
<circle cx="465" cy="71" r="6.4" fill="#9A6A7E"/>
<circle cx="486" cy="71" r="6.4" fill="#9A6A7E"/>
<circle cx="507" cy="71" r="6.4" fill="#9A6A7E"/>
<circle cx="528" cy="71" r="6.4" fill="#9A6A7E"/>
<circle cx="549" cy="71" r="6.4" fill="#9A6A7E"/>
<circle cx="571" cy="71" r="6.4" fill="#9A6A7E"/>
<circle cx="592" cy="71" r="6.4" fill="#9A6A7E"/>
<circle cx="70" cy="90" r="6.4" fill="#6E4555"/>
<circle cx="91" cy="90" r="6.4" fill="#6E4555"/>
<circle cx="112" cy="90" r="6.4" fill="#6E4555"/>
<circle cx="134" cy="90" r="6.4" fill="#6E4555"/>
<circle cx="155" cy="90" r="6.4" fill="#6E4555"/>
<circle cx="176" cy="90" r="6.4" fill="#6E4555"/>
<circle cx="197" cy="90" r="6.4" fill="#6E4555"/>
<circle cx="218" cy="90" r="6.4" fill="#6E4555"/>
<circle cx="240" cy="90" r="6.4" fill="#6E4555"/>
<circle cx="261" cy="90" r="6.4" fill="#C2ADB8"/>
<circle cx="282" cy="90" r="6.4" fill="#C2ADB8"/>
<circle cx="303" cy="90" r="6.4" fill="#C2ADB8"/>
<circle cx="324" cy="90" r="6.4" fill="#C2ADB8"/>
<circle cx="346" cy="90" r="6.4" fill="#9A6A7E"/>
<circle cx="367" cy="90" r="6.4" fill="#9A6A7E"/>
<circle cx="388" cy="90" r="6.4" fill="#9A6A7E"/>
<circle cx="409" cy="90" r="6.4" fill="#9A6A7E"/>
<circle cx="430" cy="90" r="6.4" fill="#9A6A7E"/>
<circle cx="452" cy="90" r="6.4" fill="#9A6A7E"/>
<circle cx="473" cy="90" r="6.4" fill="#9A6A7E"/>
<circle cx="494" cy="90" r="6.4" fill="#9A6A7E"/>
<circle cx="515" cy="90" r="6.4" fill="#9A6A7E"/>
<circle cx="536" cy="90" r="6.4" fill="#9A6A7E"/>
<circle cx="558" cy="90" r="6.4" fill="#9A6A7E"/>
<circle cx="579" cy="90" r="6.4" fill="#9A6A7E"/>
<circle cx="600" cy="90" r="6.4" fill="#9A6A7E"/>
<circle cx="83" cy="109" r="6.4" fill="#6E4555"/>
<circle cx="104" cy="109" r="6.4" fill="#6E4555"/>
<circle cx="125" cy="109" r="6.4" fill="#6E4555"/>
<circle cx="147" cy="109" r="6.4" fill="#6E4555"/>
<circle cx="168" cy="109" r="6.4" fill="#6E4555"/>
<circle cx="189" cy="109" r="6.4" fill="#6E4555"/>
<circle cx="210" cy="109" r="6.4" fill="#6E4555"/>
<circle cx="231" cy="109" r="6.4" fill="#6E4555"/>
<circle cx="253" cy="109" r="6.4" fill="#C2ADB8"/>
<circle cx="274" cy="109" r="6.4" fill="#C2ADB8"/>
<circle cx="295" cy="109" r="6.4" fill="#C2ADB8"/>
<circle cx="316" cy="109" r="6.4" fill="#C2ADB8"/>
<circle cx="337" cy="109" r="6.4" fill="#C2ADB8"/>
<circle cx="359" cy="109" r="6.4" fill="#C2ADB8"/>
<circle cx="380" cy="109" r="6.4" fill="#9A6A7E"/>
<circle cx="401" cy="109" r="6.4" fill="#9A6A7E"/>
<circle cx="422" cy="109" r="6.4" fill="#9A6A7E"/>
<circle cx="443" cy="109" r="6.4" fill="#9A6A7E"/>
<circle cx="465" cy="109" r="6.4" fill="#9A6A7E"/>
<circle cx="486" cy="109" r="6.4" fill="#9A6A7E"/>
<circle cx="507" cy="109" r="6.4" fill="#9A6A7E"/>
<circle cx="528" cy="109" r="6.4" fill="#9A6A7E"/>
<circle cx="549" cy="109" r="6.4" fill="#9A6A7E"/>
<circle cx="571" cy="109" r="6.4" fill="#9A6A7E"/>
<circle cx="592" cy="109" r="6.4" fill="#9A6A7E"/>
<circle cx="70" cy="128" r="6.4" fill="#6E4555"/>
<circle cx="91" cy="128" r="6.4" fill="#6E4555"/>
<circle cx="112" cy="128" r="6.4" fill="#6E4555"/>
<circle cx="134" cy="128" r="6.4" fill="#6E4555"/>
<circle cx="155" cy="128" r="6.4" fill="#6E4555"/>
<circle cx="176" cy="128" r="6.4" fill="#6E4555"/>
<circle cx="197" cy="128" r="6.4" fill="#6E4555"/>
<circle cx="218" cy="128" r="6.4" fill="#6E4555"/>
<circle cx="240" cy="128" r="6.4" fill="#6E4555"/>
<circle cx="261" cy="128" r="6.4" fill="#C2ADB8"/>
<circle cx="282" cy="128" r="6.4" fill="#C2ADB8"/>
<circle cx="303" cy="128" r="6.4" fill="#C2ADB8"/>
<circle cx="324" cy="128" r="6.4" fill="#C2ADB8"/>
<circle cx="346" cy="128" r="6.4" fill="#C2ADB8"/>
<circle cx="367" cy="128" r="6.4" fill="#9A6A7E"/>
<circle cx="388" cy="128" r="6.4" fill="#9A6A7E"/>
<circle cx="409" cy="128" r="6.4" fill="#9A6A7E"/>
<circle cx="430" cy="128" r="6.4" fill="#9A6A7E"/>
<circle cx="452" cy="128" r="6.4" fill="#9A6A7E"/>
<circle cx="473" cy="128" r="6.4" fill="#9A6A7E"/>
<circle cx="494" cy="128" r="6.4" fill="#9A6A7E"/>
<circle cx="515" cy="128" r="6.4" fill="#9A6A7E"/>
<circle cx="536" cy="128" r="6.4" fill="#9A6A7E"/>
<circle cx="558" cy="128" r="6.4" fill="#9A6A7E"/>
<circle cx="579" cy="128" r="6.4" fill="#9A6A7E"/>
<circle cx="600" cy="128" r="6.4" fill="#9A6A7E"/>
<circle cx="83" cy="147" r="6.4" fill="#6E4555"/>
<circle cx="104" cy="147" r="6.4" fill="#6E4555"/>
<circle cx="125" cy="147" r="6.4" fill="#6E4555"/>
<circle cx="147" cy="147" r="6.4" fill="#6E4555"/>
<circle cx="168" cy="147" r="6.4" fill="#6E4555"/>
<circle cx="189" cy="147" r="6.4" fill="#6E4555"/>
<circle cx="210" cy="147" r="6.4" fill="#6E4555"/>
<circle cx="231" cy="147" r="6.4" fill="#6E4555"/>
<circle cx="253" cy="147" r="6.4" fill="#C2ADB8"/>
<circle cx="274" cy="147" r="6.4" fill="#C2ADB8"/>
<circle cx="295" cy="147" r="6.4" fill="#C2ADB8"/>
<circle cx="316" cy="147" r="6.4" fill="#C2ADB8"/>
<circle cx="337" cy="147" r="6.4" fill="#C2ADB8"/>
<circle cx="359" cy="147" r="6.4" fill="#C2ADB8"/>
<circle cx="380" cy="147" r="6.4" fill="#9A6A7E"/>
<circle cx="401" cy="147" r="6.4" fill="#9A6A7E"/>
<circle cx="422" cy="147" r="6.4" fill="#9A6A7E"/>
<circle cx="443" cy="147" r="6.4" fill="#9A6A7E"/>
<circle cx="465" cy="147" r="6.4" fill="#9A6A7E"/>
<circle cx="486" cy="147" r="6.4" fill="#9A6A7E"/>
<circle cx="507" cy="147" r="6.4" fill="#9A6A7E"/>
<circle cx="528" cy="147" r="6.4" fill="#9A6A7E"/>
<circle cx="549" cy="147" r="6.4" fill="#9A6A7E"/>
<circle cx="571" cy="147" r="6.4" fill="#9A6A7E"/>
<circle cx="592" cy="147" r="6.4" fill="#5B4752"/>
<circle cx="70" cy="166" r="6.4" fill="#6E4555"/>
<circle cx="91" cy="166" r="6.4" fill="#6E4555"/>
<circle cx="112" cy="166" r="6.4" fill="#6E4555"/>
<circle cx="134" cy="166" r="6.4" fill="#6E4555"/>
<circle cx="155" cy="166" r="6.4" fill="#6E4555"/>
<circle cx="176" cy="166" r="6.4" fill="#6E4555"/>
<circle cx="197" cy="166" r="6.4" fill="#6E4555"/>
<circle cx="218" cy="166" r="6.4" fill="#6E4555"/>
<circle cx="240" cy="166" r="6.4" fill="#C2ADB8"/>
<circle cx="261" cy="166" r="6.4" fill="#C2ADB8"/>
<circle cx="282" cy="166" r="6.4" fill="#C2ADB8"/>
<circle cx="303" cy="166" r="6.4" fill="#C2ADB8"/>
<circle cx="324" cy="166" r="6.4" fill="#C2ADB8"/>
<circle cx="346" cy="166" r="6.4" fill="#C2ADB8"/>
<circle cx="367" cy="166" r="6.4" fill="#C2ADB8"/>
<circle cx="388" cy="166" r="6.4" fill="#9A6A7E"/>
<circle cx="409" cy="166" r="6.4" fill="#9A6A7E"/>
<circle cx="430" cy="166" r="6.4" fill="#9A6A7E"/>
<circle cx="452" cy="166" r="6.4" fill="#9A6A7E"/>
<circle cx="473" cy="166" r="6.4" fill="#9A6A7E"/>
<circle cx="494" cy="166" r="6.4" fill="#9A6A7E"/>
<circle cx="515" cy="166" r="6.4" fill="#9A6A7E"/>
<circle cx="536" cy="166" r="6.4" fill="#9A6A7E"/>
<circle cx="558" cy="166" r="6.4" fill="#5B4752"/>
<circle cx="579" cy="166" r="6.4" fill="#5B4752"/>
<circle cx="600" cy="166" r="6.4" fill="#5B4752"/>
<circle cx="83" cy="185" r="6.4" fill="#6E4555"/>
<circle cx="104" cy="185" r="6.4" fill="#6E4555"/>
<circle cx="125" cy="185" r="6.4" fill="#6E4555"/>
<circle cx="147" cy="185" r="6.4" fill="#6E4555"/>
<circle cx="168" cy="185" r="6.4" fill="#D7C9D0"/>
<circle cx="189" cy="185" r="6.4" fill="#6E4555"/>
<circle cx="210" cy="185" r="6.4" fill="#D7C9D0"/>
<circle cx="231" cy="185" r="6.4" fill="#C2ADB8"/>
<circle cx="253" cy="185" r="6.4" fill="#C2ADB8"/>
<circle cx="274" cy="185" r="6.4" fill="#C2ADB8"/>
<circle cx="295" cy="185" r="6.4" fill="#C2ADB8"/>
<circle cx="316" cy="185" r="6.4" fill="#C2ADB8"/>
<circle cx="337" cy="185" r="6.4" fill="#C2ADB8"/>
<circle cx="359" cy="185" r="6.4" fill="#C2ADB8"/>
<circle cx="380" cy="185" r="6.4" fill="#C2ADB8"/>
<circle cx="401" cy="185" r="6.4" fill="#C2ADB8"/>
<circle cx="422" cy="185" r="6.4" fill="#9A6A7E"/>
<circle cx="443" cy="185" r="6.4" fill="#9A6A7E"/>
<circle cx="465" cy="185" r="6.4" fill="#9A6A7E"/>
<circle cx="486" cy="185" r="6.4" fill="#9A6A7E"/>
<circle cx="507" cy="185" r="6.4" fill="#5B4752"/>
<circle cx="528" cy="185" r="6.4" fill="#9A6A7E"/>
<circle cx="549" cy="185" r="6.4" fill="#5B4752"/>
<circle cx="571" cy="185" r="6.4" fill="#5B4752"/>
<circle cx="592" cy="185" r="6.4" fill="#5B4752"/>
<circle cx="70" cy="204" r="6.4" fill="#D7C9D0"/>
<circle cx="91" cy="204" r="6.4" fill="#D7C9D0"/>
<circle cx="112" cy="204" r="6.4" fill="#6E4555"/>
<circle cx="134" cy="204" r="6.4" fill="#D7C9D0"/>
<circle cx="155" cy="204" r="6.4" fill="#D7C9D0"/>
<circle cx="176" cy="204" r="6.4" fill="#D7C9D0"/>
<circle cx="197" cy="204" r="6.4" fill="#D7C9D0"/>
<circle cx="218" cy="204" r="6.4" fill="#C2ADB8"/>
<circle cx="240" cy="204" r="6.4" fill="#C2ADB8"/>
<circle cx="261" cy="204" r="6.4" fill="#C2ADB8"/>
<circle cx="282" cy="204" r="6.4" fill="#C2ADB8"/>
<circle cx="303" cy="204" r="6.4" fill="#C2ADB8"/>
<circle cx="324" cy="204" r="6.4" fill="#C2ADB8"/>
<circle cx="346" cy="204" r="6.4" fill="#C2ADB8"/>
<circle cx="367" cy="204" r="6.4" fill="#C2ADB8"/>
<circle cx="388" cy="204" r="6.4" fill="#9A6A7E"/>
<circle cx="409" cy="204" r="6.4" fill="#C2ADB8"/>
<circle cx="430" cy="204" r="6.4" fill="#9A6A7E"/>
<circle cx="452" cy="204" r="6.4" fill="#9A6A7E"/>
<circle cx="473" cy="204" r="6.4" fill="#5B4752"/>
<circle cx="494" cy="204" r="6.4" fill="#5B4752"/>
<circle cx="515" cy="204" r="6.4" fill="#5B4752"/>
<circle cx="536" cy="204" r="6.4" fill="#5B4752"/>
<circle cx="558" cy="204" r="6.4" fill="#5B4752"/>
<circle cx="579" cy="204" r="6.4" fill="#5B4752"/>
<circle cx="600" cy="204" r="6.4" fill="#5B4752"/>
<circle cx="83" cy="223" r="6.4" fill="#D7C9D0"/>
<circle cx="104" cy="223" r="6.4" fill="#D7C9D0"/>
<circle cx="125" cy="223" r="6.4" fill="#D7C9D0"/>
<circle cx="147" cy="223" r="6.4" fill="#D7C9D0"/>
<circle cx="168" cy="223" r="6.4" fill="#D7C9D0"/>
<circle cx="189" cy="223" r="6.4" fill="#D7C9D0"/>
<circle cx="210" cy="223" r="6.4" fill="#D7C9D0"/>
<circle cx="231" cy="223" r="6.4" fill="#C2ADB8"/>
<circle cx="253" cy="223" r="6.4" fill="#C2ADB8"/>
<circle cx="274" cy="223" r="6.4" fill="#C2ADB8"/>
<circle cx="295" cy="223" r="6.4" fill="#C2ADB8"/>
<circle cx="316" cy="223" r="6.4" fill="#C2ADB8"/>
<circle cx="337" cy="223" r="6.4" fill="#C2ADB8"/>
<circle cx="359" cy="223" r="6.4" fill="#C2ADB8"/>
<circle cx="380" cy="223" r="6.4" fill="#C2ADB8"/>
<circle cx="401" cy="223" r="6.4" fill="#C2ADB8"/>
<circle cx="422" cy="223" r="6.4" fill="#5B4752"/>
<circle cx="443" cy="223" r="6.4" fill="#9A6A7E"/>
<circle cx="465" cy="223" r="6.4" fill="#5B4752"/>
<circle cx="486" cy="223" r="6.4" fill="#5B4752"/>
<circle cx="507" cy="223" r="6.4" fill="#5B4752"/>
<circle cx="528" cy="223" r="6.4" fill="#5B4752"/>
<circle cx="549" cy="223" r="6.4" fill="#5B4752"/>
<circle cx="571" cy="223" r="6.4" fill="#5B4752"/>
<circle cx="592" cy="223" r="6.4" fill="#5B4752"/>
<circle cx="70" cy="242" r="6.4" fill="#D7C9D0"/>
<circle cx="91" cy="242" r="6.4" fill="#D7C9D0"/>
<circle cx="112" cy="242" r="6.4" fill="#D7C9D0"/>
<circle cx="134" cy="242" r="6.4" fill="#D7C9D0"/>
<circle cx="155" cy="242" r="6.4" fill="#D7C9D0"/>
<circle cx="176" cy="242" r="6.4" fill="#D7C9D0"/>
<circle cx="197" cy="242" r="6.4" fill="#D7C9D0"/>
<circle cx="218" cy="242" r="6.4" fill="#D7C9D0"/>
<circle cx="240" cy="242" r="6.4" fill="#C2ADB8"/>
<circle cx="261" cy="242" r="6.4" fill="#C2ADB8"/>
<circle cx="282" cy="242" r="6.4" fill="#C2ADB8"/>
<circle cx="303" cy="242" r="6.4" fill="#C2ADB8"/>
<circle cx="324" cy="242" r="6.4" fill="#C2ADB8"/>
<circle cx="346" cy="242" r="6.4" fill="#C2ADB8"/>
<circle cx="367" cy="242" r="6.4" fill="#C2ADB8"/>
<circle cx="388" cy="242" r="6.4" fill="#C2ADB8"/>
<circle cx="409" cy="242" r="6.4" fill="#5B4752"/>
<circle cx="430" cy="242" r="6.4" fill="#5B4752"/>
<circle cx="452" cy="242" r="6.4" fill="#5B4752"/>
<circle cx="473" cy="242" r="6.4" fill="#5B4752"/>
<circle cx="494" cy="242" r="6.4" fill="#5B4752"/>
<circle cx="515" cy="242" r="6.4" fill="#5B4752"/>
<circle cx="536" cy="242" r="6.4" fill="#5B4752"/>
<circle cx="558" cy="242" r="6.4" fill="#5B4752"/>
<circle cx="579" cy="242" r="6.4" fill="#5B4752"/>
<circle cx="600" cy="242" r="6.4" fill="#5B4752"/>
<circle cx="83" cy="261" r="6.4" fill="#D7C9D0"/>
<circle cx="104" cy="261" r="6.4" fill="#D7C9D0"/>
<circle cx="125" cy="261" r="6.4" fill="#D7C9D0"/>
<circle cx="147" cy="261" r="6.4" fill="#D7C9D0"/>
<circle cx="168" cy="261" r="6.4" fill="#D7C9D0"/>
<circle cx="189" cy="261" r="6.4" fill="#D7C9D0"/>
<circle cx="210" cy="261" r="6.4" fill="#D7C9D0"/>
<circle cx="231" cy="261" r="6.4" fill="#D7C9D0"/>
<circle cx="253" cy="261" r="6.4" fill="#C2ADB8"/>
<circle cx="274" cy="261" r="6.4" fill="#C2ADB8"/>
<circle cx="295" cy="261" r="6.4" fill="#C2ADB8"/>
<circle cx="316" cy="261" r="6.4" fill="#C2ADB8"/>
<circle cx="337" cy="261" r="6.4" fill="#C2ADB8"/>
<circle cx="359" cy="261" r="6.4" fill="#C2ADB8"/>
<circle cx="380" cy="261" r="6.4" fill="#C2ADB8"/>
<circle cx="401" cy="261" r="6.4" fill="#5B4752"/>
<circle cx="422" cy="261" r="6.4" fill="#5B4752"/>
<circle cx="443" cy="261" r="6.4" fill="#5B4752"/>
<circle cx="465" cy="261" r="6.4" fill="#5B4752"/>
<circle cx="486" cy="261" r="6.4" fill="#5B4752"/>
<circle cx="507" cy="261" r="6.4" fill="#5B4752"/>
<circle cx="528" cy="261" r="6.4" fill="#5B4752"/>
<circle cx="549" cy="261" r="6.4" fill="#5B4752"/>
<circle cx="571" cy="261" r="6.4" fill="#5B4752"/>
<circle cx="592" cy="261" r="6.4" fill="#5B4752"/>
<circle cx="70" cy="280" r="6.4" fill="#D7C9D0"/>
<circle cx="91" cy="280" r="6.4" fill="#D7C9D0"/>
<circle cx="112" cy="280" r="6.4" fill="#D7C9D0"/>
<circle cx="134" cy="280" r="6.4" fill="#D7C9D0"/>
<circle cx="155" cy="280" r="6.4" fill="#D7C9D0"/>
<circle cx="176" cy="280" r="6.4" fill="#D7C9D0"/>
<circle cx="197" cy="280" r="6.4" fill="#D7C9D0"/>
<circle cx="218" cy="280" r="6.4" fill="#D7C9D0"/>
<circle cx="240" cy="280" r="6.4" fill="#D7C9D0"/>
<circle cx="261" cy="280" r="6.4" fill="#C2ADB8"/>
<circle cx="282" cy="280" r="6.4" fill="#C2ADB8"/>
<circle cx="303" cy="280" r="6.4" fill="#C2ADB8"/>
<circle cx="324" cy="280" r="6.4" fill="#C2ADB8"/>
<circle cx="346" cy="280" r="6.4" fill="#C2ADB8"/>
<circle cx="367" cy="280" r="6.4" fill="#C2ADB8"/>
<circle cx="388" cy="280" r="6.4" fill="#C2ADB8"/>
<circle cx="409" cy="280" r="6.4" fill="#5B4752"/>
<circle cx="430" cy="280" r="6.4" fill="#5B4752"/>
<circle cx="452" cy="280" r="6.4" fill="#5B4752"/>
<circle cx="473" cy="280" r="6.4" fill="#5B4752"/>
<circle cx="494" cy="280" r="6.4" fill="#5B4752"/>
<circle cx="515" cy="280" r="6.4" fill="#5B4752"/>
<circle cx="536" cy="280" r="6.4" fill="#5B4752"/>
<circle cx="558" cy="280" r="6.4" fill="#5B4752"/>
<circle cx="579" cy="280" r="6.4" fill="#5B4752"/>
<circle cx="600" cy="280" r="6.4" fill="#5B4752"/>
<circle cx="83" cy="299" r="6.4" fill="#D7C9D0"/>
<circle cx="104" cy="299" r="6.4" fill="#D7C9D0"/>
<circle cx="125" cy="299" r="6.4" fill="#D7C9D0"/>
<circle cx="147" cy="299" r="6.4" fill="#D7C9D0"/>
<circle cx="168" cy="299" r="6.4" fill="#D7C9D0"/>
<circle cx="189" cy="299" r="6.4" fill="#D7C9D0"/>
<circle cx="210" cy="299" r="6.4" fill="#D7C9D0"/>
<circle cx="231" cy="299" r="6.4" fill="#D7C9D0"/>
<circle cx="253" cy="299" r="6.4" fill="#D7C9D0"/>
<circle cx="274" cy="299" r="6.4" fill="#C2ADB8"/>
<circle cx="295" cy="299" r="6.4" fill="#C2ADB8"/>
<circle cx="316" cy="299" r="6.4" fill="#C2ADB8"/>
<circle cx="337" cy="299" r="6.4" fill="#C2ADB8"/>
<circle cx="359" cy="299" r="6.4" fill="#C2ADB8"/>
<circle cx="380" cy="299" r="6.4" fill="#C2ADB8"/>
<circle cx="401" cy="299" r="6.4" fill="#5B4752"/>
<circle cx="422" cy="299" r="6.4" fill="#5B4752"/>
<circle cx="443" cy="299" r="6.4" fill="#5B4752"/>
<circle cx="465" cy="299" r="6.4" fill="#5B4752"/>
<circle cx="486" cy="299" r="6.4" fill="#5B4752"/>
<circle cx="507" cy="299" r="6.4" fill="#5B4752"/>
<circle cx="528" cy="299" r="6.4" fill="#5B4752"/>
<circle cx="549" cy="299" r="6.4" fill="#5B4752"/>
<circle cx="571" cy="299" r="6.4" fill="#5B4752"/>
<circle cx="592" cy="299" r="6.4" fill="#5B4752"/>
<circle cx="70" cy="318" r="6.4" fill="#D7C9D0"/>
<circle cx="91" cy="318" r="6.4" fill="#D7C9D0"/>
<circle cx="112" cy="318" r="6.4" fill="#D7C9D0"/>
<circle cx="134" cy="318" r="6.4" fill="#D7C9D0"/>
<circle cx="155" cy="318" r="6.4" fill="#D7C9D0"/>
<circle cx="176" cy="318" r="6.4" fill="#D7C9D0"/>
<circle cx="197" cy="318" r="6.4" fill="#D7C9D0"/>
<circle cx="218" cy="318" r="6.4" fill="#D7C9D0"/>
<circle cx="240" cy="318" r="6.4" fill="#D7C9D0"/>
<circle cx="261" cy="318" r="6.4" fill="#D7C9D0"/>
<circle cx="282" cy="318" r="6.4" fill="#D7C9D0"/>
<circle cx="303" cy="318" r="6.4" fill="#C2ADB8"/>
<circle cx="324" cy="318" r="6.4" fill="#C2ADB8"/>
<circle cx="346" cy="318" r="6.4" fill="#C2ADB8"/>
<circle cx="367" cy="318" r="6.4" fill="#C2ADB8"/>
<circle cx="388" cy="318" r="6.4" fill="#5B4752"/>
<circle cx="409" cy="318" r="6.4" fill="#5B4752"/>
<circle cx="430" cy="318" r="6.4" fill="#5B4752"/>
<circle cx="452" cy="318" r="6.4" fill="#5B4752"/>
<circle cx="473" cy="318" r="6.4" fill="#5B4752"/>
<circle cx="494" cy="318" r="6.4" fill="#5B4752"/>
<circle cx="515" cy="318" r="6.4" fill="#5B4752"/>
<circle cx="536" cy="318" r="6.4" fill="#5B4752"/>
<circle cx="558" cy="318" r="6.4" fill="#5B4752"/>
<circle cx="579" cy="318" r="6.4" fill="#5B4752"/>
<circle cx="600" cy="318" r="6.4" fill="#5B4752"/>
  </g>
  <text class="label" x="56" y="32">Spatial Visium · cell-type map</text>
  <text class="label-dim" x="56" y="345">10x Visium + scRNA-seq ref · NNLS deconvolution</text>
</svg>
